<svg width="24" height="24" viewBox="0 0 24 24" fill="none" xmlns="http://www.w3.org/2000/svg">
<path d="M12 0.375C9.90625 0.375 7.96875 0.90625 6.1875 1.96875C4.40625 3 2.98438 4.40625 1.92188 6.1875C0.890625 7.96875 0.375 9.90625 0.375 12C0.375 14.0938 0.890625 16.0312 1.92188 17.8125C2.98438 19.5938 4.40625 21 6.1875 22.0312C7.96875 23.0938 9.90625 23.625 12 23.625C14.0938 23.625 16.0312 23.0938 17.8125 22.0312C19.5938 21 21 19.5938 22.0312 17.8125C23.0938 16.0312 23.625 14.0938 23.625 12C23.625 9.90625 23.0938 7.96875 22.0312 6.1875C21 4.40625 19.5938 3 17.8125 1.96875C16.0312 0.90625 14.0938 0.375 12 0.375ZM12 21.375C10.3125 21.375 8.75 20.9531 7.3125 20.1094C5.875 19.2656 4.73438 18.125 3.89062 16.6875C3.04688 15.25 2.625 13.6875 2.625 12C2.625 10.3125 3.04688 8.75 3.89062 7.3125C4.73438 5.875 5.875 4.73438 7.3125 3.89062C8.75 3.04688 10.3125 2.625 12 2.625C13.6875 2.625 15.25 3.04688 16.6875 3.89062C18.125 4.73438 19.2656 5.875 20.1094 7.3125C20.9531 8.75 21.375 10.3125 21.375 12C21.375 13.6875 20.9531 15.25 20.1094 16.6875C19.2656 18.125 18.125 19.2656 16.6875 20.1094C15.25 20.9531 13.6875 21.375 12 21.375ZM14.9062 16.5L10.9219 13.5938C10.7656 13.4688 10.6875 13.3125 10.6875 13.125V5.4375C10.6875 5.28125 10.7344 5.15625 10.8281 5.0625C10.9531 4.9375 11.0938 4.875 11.25 4.875H12.75C12.9062 4.875 13.0312 4.9375 13.125 5.0625C13.25 5.15625 13.3125 5.28125 13.3125 5.4375V12.0938L16.4531 14.3438C16.5781 14.4375 16.6406 14.5625 16.6406 14.7188C16.6719 14.875 16.6406 15.0156 16.5469 15.1406L15.7031 16.3594C15.6094 16.4844 15.4844 16.5625 15.3281 16.5938C15.1719 16.625 15.0312 16.5938 14.9062 16.5Z" fill="black"/>
</svg>
