<svg width="162" height="94" viewBox="0 0 162 94" fill="none" xmlns="http://www.w3.org/2000/svg">
<circle cx="78.7852" cy="47" r="47" fill="#282828"/>
<path d="M85.3844 35.5088C84.1865 36.7067 82.7282 37.3057 81.0094 37.3057C79.2907 37.3057 77.8063 36.7067 76.5563 35.5088C75.3584 34.2588 74.7594 32.7744 74.7594 31.0557C74.7594 29.3369 75.3584 27.8786 76.5563 26.6807C77.8063 25.4307 79.2907 24.8057 81.0094 24.8057C82.7282 24.8057 84.1865 25.4307 85.3844 26.6807C86.6344 27.8786 87.2594 29.3369 87.2594 31.0557C87.2594 32.7744 86.6344 34.2588 85.3844 35.5088ZM76.8688 56.7588L79.1344 59.8057C79.6553 60.4827 79.8375 61.238 79.6813 62.0713C79.5771 62.9567 79.1865 63.6598 78.5094 64.1807C77.9365 64.5973 77.3115 64.8057 76.6344 64.8057C75.5928 64.8057 74.7594 64.389 74.1344 63.5557L70.3844 58.5557C69.9678 57.9827 69.7594 57.3577 69.7594 56.6807C69.7594 55.9515 69.9938 55.3005 70.4625 54.7275L74.0563 50.2744L78.8219 54.2588L76.8688 56.7588ZM87.9625 50.2744L91.5563 54.7275C92.025 55.3005 92.2594 55.9515 92.2594 56.6807C92.2594 57.3577 92.0511 57.9827 91.6344 58.5557L87.8844 63.5557C87.2594 64.389 86.4261 64.8057 85.3844 64.8057C84.7073 64.8057 84.0823 64.5973 83.5094 64.1807C82.8323 63.6598 82.4157 62.9567 82.2594 62.0713C82.1553 61.238 82.3636 60.4827 82.8844 59.8057L85.15 56.7588L83.1969 54.2588L87.9625 50.2744ZM93.4313 34.8838C94.2646 34.988 94.9157 35.4046 95.3844 36.1338C95.9053 36.863 96.0875 37.6442 95.9313 38.4775C95.8271 39.3109 95.4105 39.988 94.6813 40.5088L91.4782 42.6963C90.2803 43.5817 88.874 44.3109 87.2594 44.8838V47.3057H74.7594V44.8838C73.1448 44.3109 71.7386 43.5817 70.5407 42.6963L67.3375 40.5088C66.6084 39.988 66.1657 39.3109 66.0094 38.4775C65.9053 37.6442 66.0875 36.863 66.5563 36.1338C67.0771 35.4046 67.7542 34.988 68.5875 34.8838C69.4209 34.7275 70.2021 34.8838 70.9313 35.3525L74.1344 37.6182C76.1657 39.0244 78.4573 39.7275 81.0094 39.7275C83.5615 39.7275 85.8532 39.0244 87.8844 37.6182L91.0875 35.3525C91.8167 34.8838 92.598 34.7275 93.4313 34.8838Z" fill="white"/>
</svg>
